:SAMPLES-PER-SECOND 30
:FULLY-SPECIFIED
:DEGREES
630
root  -23.5225 38.3964 24.4413 -39.0953 79.4745 -33.9388
RightUpLeg  -13.0185 -12.2592 4.47532
RightLeg  27.1586 1.91675 0.850255
RightFoot  -6.75067 0.0560622 -2.53579
RightToes  5.82063e-011 0 -3.6325e-017
Spine  12.426 -3.46019 16.0545
Spine1  5.69572 -0.576059 -0.886056
HEad  -24.3873 0.0704379 -5.51327
LeftShoulder1  0.551088 1.97515 -29.9617
LeftArm  2.39441 12.5554 -42.7267
LeftForeArm  25.1188 -13.9927 -7.47912
LeftHand  0.0435735 2.92014 -3.25388
RightShoulder  -0.205247 -4.11931 25.6898
RightArm  15.0131 -2.23773 46.6472
RightForeArm  13.7033 9.34798 7.36942
RightHand  -0.0993474 2.53592 -1.65266
LeftUpLeg  -5.31177 -7.66224 7.02994
LeftLeg  64.8482 -6.13316 -13.4293
LeftFoot  7.18726 1.55914 -9.87731
LeftToes  1.81573e-012 2.54609e-010 -3.45981e-011
631
root  -22.3857 38.71 24.9134 -37.5471 80.6941 -32.0168
RightUpLeg  -9.60297 -12.7604 3.17312
RightLeg  25.5327 1.69063 1.01563
RightFoot  -8.05688 0.0178079 -2.50844
RightToes  5.82063e-011 0 -3.6325e-017
Spine  12.0567 -2.90915 16.7441
Spine1  5.90345 0.408898 -2.97975
HEad  -23.1031 -0.44024 -4.95633
LeftShoulder1  0.618439 1.75119 -29.176
LeftArm  6.2959 14.0277 -43.2685
LeftForeArm  18.7389 -17.4665 -6.16634
LeftHand  -0.00670055 1.74153 0.000954039
RightShoulder  -0.276323 -4.34137 25.7213
RightArm  15.8475 -1.42589 47.0374
RightForeArm  13.3209 9.24283 7.67043
RightHand  -0.152991 3.00711 -2.34114
LeftUpLeg  -9.48905 -7.48971 6.04233
LeftLeg  64.9823 -3.96961 -8.66024
LeftFoot  6.37905 0.960156 -6.39908
LeftToes  1.81573e-012 2.54609e-010 -3.45981e-011
632
root  -21.2666 39.0328 25.3595 -34.1036 81.5592 -28.2818
RightUpLeg  -5.89973 -12.0407 1.85495
RightLeg  23.0148 0.64238 1.19476
RightFoot  -8.98603 -0.0137054 -2.30968
RightToes  5.82063e-011 0 -3.6325e-017
Spine  11.7935 -2.17462 16.7849
Spine1  5.73792 1.26104 -4.26427
HEad  -21.8043 -1.01097 -4.73063
LeftShoulder1  0.682676 1.5632 -29.0717
LeftArm  7.69206 14.8416 -43.554
LeftForeArm  15.5247 -19.254 -5.38748
LeftHand  -0.0454188 1.57303 1.1605
RightShoulder  -0.271271 -4.33453 25.3512
RightArm  16.7596 -1.26475 47.1878
RightForeArm  13.5334 10.7625 7.39127
RightHand  -0.116646 1.9264 -2.02102
LeftUpLeg  -12.8005 -6.56517 4.98008
LeftLeg  62.2164 -3.10351 -5.79075
LeftFoot  4.36966 0.530265 -4.02812
LeftToes  1.81573e-012 2.54609e-010 -3.45981e-011
633
root  -20.1733 39.2731 25.7912 -29.5888 82.3565 -23.6571
RightUpLeg  -2.60064 -11.5738 0.594024
RightLeg  20.7632 -0.116941 1.64507
RightFoot  -9.85378 -0.0358205 -2.33832
RightToes  5.82063e-011 0 -3.6325e-017
Spine  11.7113 -1.65476 16.134
Spine1  5.16708 1.67404 -4.93702
HEad  -21.2503 -0.908995 -4.3377
LeftShoulder1  0.626759 1.72959 -29.2167
LeftArm  8.48553 15.6226 -43.4245
LeftForeArm  14.318 -21.0042 -4.67107
LeftHand  -0.0462532 1.70584 1.18335
RightShoulder  -0.198648 -4.10988 25.1279
RightArm  18.4984 -0.940896 47.2184
RightForeArm  10.5842 12.5339 7.16412
RightHand  -0.141199 2.12471 -2.36575
LeftUpLeg  -15.4913 -5.13329 3.81474
LeftLeg  56.9399 -3.66347 -5.51739
LeftFoot  2.23091 0.202949 -1.82105
LeftToes  1.81573e-012 2.54609e-010 -3.45981e-011
634
root  -19.0763 39.4369 26.2238 -26.5565 83.1367 -20.5946
RightUpLeg  0.623107 -10.5606 -0.0457626
RightLeg  18.377 -1.44962 1.65632
RightFoot  -10.8057 -0.0639765 -2.02194
RightToes  5.82063e-011 0 -3.6325e-017
Spine  11.3898 -1.22801 15.4233
Spine1  4.78705 1.91602 -5.48399
HEad  -20.9411 -1.29568 -3.97696
LeftShoulder1  0.624875 1.72296 -28.9762
LeftArm  8.0275 16.2066 -43.5331
LeftForeArm  14.3027 -21.7555 -4.43626
LeftHand  -0.0500277 1.51295 1.27285
RightShoulder  -0.221353 -4.17854 25.2889
RightArm  20.3574 -0.511567 47.0206
RightForeArm  8.03282 14.7016 6.59374
RightHand  -0.146371 2.23412 -2.4138
LeftUpLeg  -17.1015 -3.0613 2.8338
LeftLeg  49.1475 -4.95904 -5.70261
LeftFoot  0.647126 0.0483893 -0.519789
LeftToes  1.81573e-012 2.54609e-010 -3.45981e-011
635
root  -17.9732 39.5424 26.6195 -24.137 83.8282 -18.2426
RightUpLeg  3.86271 -9.95541 -0.391362
RightLeg  15.6396 -2.55701 1.62539
RightFoot  -11.5825 -0.082031 -1.90834
RightToes  5.82063e-011 0 -3.6325e-017
Spine  10.6067 -0.897267 14.8627
Spine1  5.12627 2.10499 -6.34078
HEad  -21.5404 -0.778457 -3.91447
LeftShoulder1  0.64386 1.64807 -28.5813
LeftArm  7.22025 16.3201 -43.8468
LeftForeArm  15.1914 -21.9036 -4.35487
LeftHand  -0.0341898 1.27901 0.768353
RightShoulder  -0.267389 -4.32454 25.2815
RightArm  21.8545 0.357026 47.3144
RightForeArm  5.48208 16.4744 6.12318
RightHand  -0.188166 3.14755 -2.79646
LeftUpLeg  -17.5529 -0.0193777 1.76427
LeftLeg  38.8371 -5.98906 -4.81415
LeftFoot  0.468689 0.120868 -1.17351
LeftToes  1.81573e-012 2.54609e-010 -3.45981e-011
636
root  -16.897 39.5961 26.9792 -22.8899 84.5121 -17.286
RightUpLeg  6.89727 -9.56456 -0.387825
RightLeg  12.7151 -3.39325 1.5002
RightFoot  -12.2907 -0.0957866 -1.49385
RightToes  5.82063e-011 0 -3.6325e-017
Spine  10.0709 -0.694099 14.0286
Spine1  4.91802 2.04076 -6.71212
HEad  -22.3432 -0.255164 -3.40543
LeftShoulder1  0.673983 1.55157 -28.4104
LeftArm  6.66597 16.1457 -44.0401
LeftForeArm  15.4225 -20.8593 -4.61852
LeftHand  -0.055177 0.735042 1.29946
RightShoulder  -0.281359 -4.37188 25.1571
RightArm  23.1627 0.727098 47.4378
RightForeArm  4.08667 18.7442 5.38137
RightHand  -0.193571 2.84085 -2.94225
LeftUpLeg  -17.149 4.07129 0.449068
LeftLeg  26.4932 -6.701 -3.15301
LeftFoot  0.955387 0.365754 -3.4594
LeftToes  1.81573e-012 2.54609e-010 -3.45981e-011
637
root  -15.8243 39.6193 27.3035 -21.8378 85.1098 -16.485
RightUpLeg  10.0525 -9.19435 -0.294262
RightLeg  9.55971 -4.22675 1.39569
RightFoot  -12.7813 -0.101131 -1.18164
RightToes  5.82063e-011 0 -3.6325e-017
Spine  9.32568 -0.443144 12.5234
Spine1  5.39068 1.87111 -6.19395
HEad  -23.549 -0.152383 -2.91983
LeftShoulder1  0.621043 1.73238 -28.9406
LeftArm  6.5745 15.6194 -43.6406
LeftForeArm  15.8197 -19.8992 -4.98493
LeftHand  -0.0564946 1.04146 1.37402
RightShoulder  -0.243365 -4.26411 24.651
RightArm  24.1203 1.39062 47.6017
RightForeArm  2.97337 20.2916 5.0532
RightHand  -0.186383 2.74091 -2.85529
LeftUpLeg  -15.807 7.03277 -0.76074
LeftLeg  13.3075 -5.55101 -1.8997
LeftFoot  0.690415 0.388302 -3.72381
LeftToes  1.81573e-012 2.54609e-010 -3.45981e-011
